<svg xmlns="http://www.w3.org/2000/svg" viewBox="0 0 1200 400">

  <defs>
    <pattern id="scan" x="0" y="0" width="2" height="4" patternUnits="userSpaceOnUse">
      <rect width="2" height="1" y="3" fill="rgba(0,0,0,0.18)"/>
    </pattern>
    <radialGradient id="cardGlow" cx="50%" cy="30%" r="60%">
      <stop offset="0%" stop-color="#1a1a1a"/>
      <stop offset="100%" stop-color="#0a0a0a"/>
    </radialGradient>
    <radialGradient id="vignette" cx="50%" cy="50%" r="70%">
      <stop offset="60%" stop-color="transparent"/>
      <stop offset="100%" stop-color="rgba(0,0,0,0.6)"/>
    </radialGradient>
  </defs>

  <rect width="1200" height="400" fill="#080808"/>
  <rect width="1200" height="400" fill="url(#scan)" opacity="0.6"/>
  <rect width="1200" height="400" fill="url(#vignette)"/>

  <rect x="0" y="0" width="5" height="400" fill="#c0392b"/>
  <rect x="0" y="397" width="1200" height="3" fill="#c0392b"/>
  <rect x="5" y="0" width="1195" height="1" fill="#181818"/>

  <text x="28" y="108"
    font-family="Impact,Arial Narrow,Haettenschweiler,sans-serif"
    font-size="86" fill="#ffffff" letter-spacing="5">A&#xB7;TEAM</text>
  <rect x="28" y="115" width="180" height="3" fill="#c0392b"/>
  <text x="28" y="135"
    font-family="Courier New,Courier,monospace"
    font-size="8.5" fill="#484848" letter-spacing="2.5">AGENT ROSTER</text>
  <text x="28" y="150"
    font-family="Courier New,Courier,monospace"
    font-size="8.5" fill="#333333" letter-spacing="2.5">// CLASSIFIED //</text>

  <text x="28" y="326"
    font-family="Impact,Arial Narrow,sans-serif"
    font-size="22" fill="#c0392b" letter-spacing="1.5">THERE IS NO PLAN B.</text>
  <rect x="28" y="332" width="155" height="1" fill="#3a1010"/>
  <text x="28" y="350"
    font-family="Courier New,Courier,monospace"
    font-size="7.5" fill="#2e2e2e" letter-spacing="2">AUTONOMOUS DEV SQUAD</text>

  <rect x="214" y="25" width="1" height="350" fill="#1c1c1c"/>

  <!-- 01 HANNIBAL / ORCHESTRATOR -->
  <g transform="translate(285,195)">
    <rect x="-62" y="-165" width="124" height="335" fill="url(#cardGlow)" rx="2"/>
    <rect x="-62" y="-165" width="124" height="335" fill="none" stroke="#191919" stroke-width="1" rx="2"/>
    <ellipse cx="0" cy="-93" rx="40" ry="43" fill="#252525"/>
    <rect x="18" y="-68" width="22" height="5" rx="2.5" fill="#3d2a12"/>
    <rect x="37" y="-67" width="5" height="3" rx="1" fill="#6b4423" opacity="0.7"/>
    <rect x="-9" y="-50" width="18" height="22" fill="#252525"/>
    <path d="M-62,-28 Q-76,-14 -70,20 L-50,130 L50,130 L70,20 Q76,-14 62,-28 Z" fill="#252525"/>
    <rect x="-52" y="-117" width="104" height="26" fill="#000000"/>
    <text x="0" y="-99" font-family="Impact,Arial Narrow,sans-serif" font-size="10.5" fill="#c0392b" text-anchor="middle" letter-spacing="1.5">ORCHESTRATOR</text>
    <text x="0" y="152" font-family="Courier New,monospace" font-size="12" fill="#777" text-anchor="middle" letter-spacing="1.5">HANNIBAL</text>
    <text x="-57" y="-152" font-family="Courier New,monospace" font-size="7" fill="#252525">01</text>
  </g>

  <!-- 02 FACE / PRODUCT-MANAGER -->
  <g transform="translate(425,195)">
    <rect x="-62" y="-165" width="124" height="335" fill="url(#cardGlow)" rx="2"/>
    <rect x="-62" y="-165" width="124" height="335" fill="none" stroke="#191919" stroke-width="1" rx="2"/>
    <ellipse cx="3" cy="-94" rx="37" ry="41" fill="#252525" transform="rotate(-3,3,-94)"/>
    <rect x="-7" y="-53" width="15" height="21" fill="#252525"/>
    <path d="M-58,-30 Q-68,-17 -62,18 L-44,130 L50,130 L62,18 Q68,-17 58,-30 Z" fill="#252525"/>
    <path d="M-12,-32 L0,-20 L12,-32" fill="#1e1e1e" stroke="#2c2c2c" stroke-width="1"/>
    <rect x="-52" y="-117" width="104" height="26" fill="#000000"/>
    <text x="0" y="-99" font-family="Impact,Arial Narrow,sans-serif" font-size="9" fill="#c0392b" text-anchor="middle" letter-spacing="1">PRODUCT MANAGER</text>
    <text x="0" y="152" font-family="Courier New,monospace" font-size="12" fill="#777" text-anchor="middle" letter-spacing="1.5">FACE</text>
    <text x="-57" y="-152" font-family="Courier New,monospace" font-size="7" fill="#252525">02</text>
  </g>

  <!-- 03 AMY / PLANNER -->
  <g transform="translate(565,195)">
    <rect x="-62" y="-165" width="124" height="335" fill="url(#cardGlow)" rx="2"/>
    <rect x="-62" y="-165" width="124" height="335" fill="none" stroke="#191919" stroke-width="1" rx="2"/>
    <ellipse cx="-2" cy="-96" rx="36" ry="42" fill="#252525"/>
    <ellipse cx="-2" cy="-140" rx="22" ry="9" fill="#252525"/>
    <ellipse cx="-28" cy="-118" rx="8" ry="18" fill="#252525"/>
    <ellipse cx="25" cy="-118" rx="7" ry="16" fill="#252525"/>
    <rect x="-7" y="-54" width="14" height="20" fill="#252525"/>
    <path d="M-56,-30 Q-64,-17 -58,16 L-42,130 L46,130 L58,16 Q64,-17 56,-30 Z" fill="#252525"/>
    <rect x="-52" y="-117" width="104" height="26" fill="#000000"/>
    <text x="0" y="-99" font-family="Impact,Arial Narrow,sans-serif" font-size="12.5" fill="#c0392b" text-anchor="middle" letter-spacing="2">PLANNER</text>
    <text x="0" y="152" font-family="Courier New,monospace" font-size="12" fill="#777" text-anchor="middle" letter-spacing="1.5">AMY</text>
    <text x="-57" y="-152" font-family="Courier New,monospace" font-size="7" fill="#252525">03</text>
  </g>

  <!-- 04 MURDOCK / DESIGNER -->
  <g transform="translate(705,195)">
    <rect x="-62" y="-165" width="124" height="335" fill="url(#cardGlow)" rx="2"/>
    <rect x="-62" y="-165" width="124" height="335" fill="none" stroke="#191919" stroke-width="1" rx="2"/>
    <ellipse cx="0" cy="-94" rx="38" ry="41" fill="#252525"/>
    <polygon points="-28,-135 -24,-168 -14,-130" fill="#252525"/>
    <polygon points="2,-136 8,-172 18,-131" fill="#252525"/>
    <polygon points="-40,-128 -44,-155 -26,-122" fill="#252525"/>
    <polygon points="28,-133 34,-158 22,-120" fill="#252525"/>
    <rect x="-7" y="-53" width="15" height="21" fill="#252525"/>
    <path d="M-59,-30 Q-68,-17 -62,17 L-45,130 L48,130 L62,17 Q68,-17 59,-30 Z" fill="#252525"/>
    <rect x="-52" y="-117" width="104" height="26" fill="#000000"/>
    <text x="0" y="-99" font-family="Impact,Arial Narrow,sans-serif" font-size="12" fill="#c0392b" text-anchor="middle" letter-spacing="2">DESIGNER</text>
    <text x="0" y="152" font-family="Courier New,monospace" font-size="12" fill="#777" text-anchor="middle" letter-spacing="1.5">MURDOCK</text>
    <text x="-57" y="-152" font-family="Courier New,monospace" font-size="7" fill="#252525">04</text>
  </g>

  <!-- 05 BARACUS / CODER -->
  <g transform="translate(845,195)">
    <rect x="-62" y="-165" width="124" height="335" fill="url(#cardGlow)" rx="2"/>
    <rect x="-62" y="-165" width="124" height="335" fill="none" stroke="#191919" stroke-width="1" rx="2"/>
    <ellipse cx="0" cy="-92" rx="41" ry="42" fill="#252525"/>
    <rect x="-9" y="-148" width="18" height="20" rx="4" fill="#252525"/>
    <rect x="-6" y="-168" width="12" height="22" rx="4" fill="#252525"/>
    <rect x="-4" y="-186" width="8" height="18" rx="3" fill="#252525"/>
    <rect x="-11" y="-50" width="22" height="20" fill="#252525"/>
    <path d="M-68,-28 Q-84,-12 -76,24 L-54,130 L54,130 L76,24 Q84,-12 68,-28 Z" fill="#252525"/>
    <path d="M-22,-40 Q0,-32 22,-40" stroke="#4a3d10" stroke-width="3.5" fill="none" opacity="0.7"/>
    <path d="M-18,-48 Q0,-42 18,-48" stroke="#5a4a18" stroke-width="2.5" fill="none" opacity="0.5"/>
    <rect x="-52" y="-115" width="104" height="26" fill="#000000"/>
    <text x="0" y="-97" font-family="Impact,Arial Narrow,sans-serif" font-size="14" fill="#c0392b" text-anchor="middle" letter-spacing="3">CODER</text>
    <text x="0" y="152" font-family="Courier New,monospace" font-size="12" fill="#777" text-anchor="middle" letter-spacing="1.5">BARACUS</text>
    <text x="-57" y="-152" font-family="Courier New,monospace" font-size="7" fill="#252525">05</text>
  </g>

  <!-- 06 DECKER / REVIEWER -->
  <g transform="translate(985,195)">
    <rect x="-62" y="-165" width="124" height="335" fill="url(#cardGlow)" rx="2"/>
    <rect x="-62" y="-165" width="124" height="335" fill="none" stroke="#191919" stroke-width="1" rx="2"/>
    <ellipse cx="0" cy="-95" rx="37" ry="39" fill="#252525"/>
    <rect x="-44" y="-136" width="88" height="10" rx="2" fill="#252525"/>
    <rect x="-30" y="-156" width="60" height="22" rx="4" fill="#252525"/>
    <rect x="-8" y="-56" width="16" height="22" fill="#252525"/>
    <path d="M-63,-34 Q-74,-22 -67,14 L-49,130 L49,130 L67,14 Q74,-22 63,-34 Z" fill="#252525"/>
    <rect x="-70" y="-28" width="14" height="8" rx="2" fill="#2e2e2e"/>
    <rect x="56" y="-28" width="14" height="8" rx="2" fill="#2e2e2e"/>
    <rect x="-52" y="-117" width="104" height="26" fill="#000000"/>
    <text x="0" y="-99" font-family="Impact,Arial Narrow,sans-serif" font-size="12" fill="#c0392b" text-anchor="middle" letter-spacing="1.5">REVIEWER</text>
    <text x="0" y="152" font-family="Courier New,monospace" font-size="12" fill="#777" text-anchor="middle" letter-spacing="1.5">DECKER</text>
    <text x="-57" y="-152" font-family="Courier New,monospace" font-size="7" fill="#252525">06</text>
  </g>

  <!-- 07 LYNCH / QA -->
  <g transform="translate(1125,195)">
    <rect x="-62" y="-165" width="124" height="335" fill="url(#cardGlow)" rx="2"/>
    <rect x="-62" y="-165" width="124" height="335" fill="none" stroke="#191919" stroke-width="1" rx="2"/>
    <ellipse cx="-3" cy="-94" rx="37" ry="40" fill="#252525" transform="rotate(-4,-3,-94)"/>
    <rect x="-10" y="-54" width="15" height="21" fill="#252525" transform="rotate(-3,0,0)"/>
    <path d="M-64,-32 Q-74,-19 -67,16 L-50,130 L46,130 L60,16 Q67,-19 57,-32 Z" fill="#252525" transform="rotate(-3,0,0)"/>
    <rect x="-52" y="-117" width="104" height="26" fill="#000000"/>
    <text x="0" y="-97" font-family="Impact,Arial Narrow,sans-serif" font-size="18" fill="#c0392b" text-anchor="middle" letter-spacing="4">QA</text>
    <text x="0" y="152" font-family="Courier New,monospace" font-size="12" fill="#777" text-anchor="middle" letter-spacing="1.5">LYNCH</text>
    <text x="-57" y="-152" font-family="Courier New,monospace" font-size="7" fill="#252525">07</text>
  </g>

</svg>