<svg xmlns="http://www.w3.org/2000/svg" viewBox="0 0 540 620">
  <defs>
    <marker id="a" markerWidth="8" markerHeight="6" refX="8" refY="3" orient="auto">
      <path d="M0,0 L8,3 L0,6" fill="#555"/>
    </marker>
    <marker id="ad" markerWidth="8" markerHeight="6" refX="8" refY="3" orient="auto">
      <path d="M0,0 L8,3 L0,6" fill="#666"/>
    </marker>
    <marker id="ar" markerWidth="8" markerHeight="6" refX="8" refY="3" orient="auto">
      <path d="M0,0 L8,3 L0,6" fill="#ef4444"/>
    </marker>
    <marker id="ag" markerWidth="8" markerHeight="6" refX="8" refY="3" orient="auto">
      <path d="M0,0 L8,3 L0,6" fill="#238636"/>
    </marker>
  </defs>

  <rect width="540" height="620" rx="8" fill="#0d1117"/>
  <rect x="1" y="1" width="538" height="618" rx="7" fill="none" stroke="#21262d" stroke-width="1"/>

  <rect x="145" y="18" width="150" height="36" rx="18" fill="#21262d" stroke="#30363d" stroke-width="1" stroke-dasharray="4,2"/>
  <text x="220" y="41" font-family="Segoe UI,Helvetica,Arial,sans-serif" font-size="13" fill="#c9d1d9" text-anchor="middle" font-weight="500">Goal</text>
  <line x1="220" y1="54" x2="220" y2="72" stroke="#555" stroke-width="1.5" marker-end="url(#a)"/>

  <rect x="120" y="72" width="200" height="42" rx="6" fill="#f59e0b" stroke="#d97706" stroke-width="1"/>
  <text x="220" y="98" font-family="Segoe UI,Helvetica,Arial,sans-serif" font-size="14" fill="#000" text-anchor="middle" font-weight="700">Orchestrator</text>

  <line x1="220" y1="114" x2="220" y2="148" stroke="#555" stroke-width="1.5" marker-end="url(#a)"/>
  <text x="228" y="136" font-family="Segoe UI,Helvetica,Arial,sans-serif" font-size="8" fill="#6e7681" text-anchor="start">new project / reprioritize</text>

  <rect x="140" y="148" width="160" height="36" rx="6" fill="#8b5cf6" stroke="#7c3aed" stroke-width="1"/>
  <text x="220" y="171" font-family="Segoe UI,Helvetica,Arial,sans-serif" font-size="12" fill="#fff" text-anchor="middle" font-weight="600">Product Manager</text>

  <line x1="220" y1="184" x2="220" y2="214" stroke="#555" stroke-width="1.5" marker-end="url(#a)"/>
  <text x="228" y="204" font-family="Segoe UI,Helvetica,Arial,sans-serif" font-size="8" fill="#6e7681" text-anchor="start">needs spec</text>

  <rect x="140" y="214" width="160" height="36" rx="6" fill="#3b82f6" stroke="#2563eb" stroke-width="1"/>
  <text x="220" y="237" font-family="Segoe UI,Helvetica,Arial,sans-serif" font-size="12" fill="#fff" text-anchor="middle" font-weight="600">Planner</text>

  <line x1="300" y1="225" x2="370" y2="225" stroke="#666" stroke-width="1.5" stroke-dasharray="4,3" marker-end="url(#ad)"/>
  <line x1="370" y1="239" x2="300" y2="239" stroke="#666" stroke-width="1.5" stroke-dasharray="4,3" marker-end="url(#ad)"/>
  <text x="335" y="220" font-family="Segoe UI,Helvetica,Arial,sans-serif" font-size="8" fill="#6e7681" text-anchor="middle">UI feature</text>

  <rect x="370" y="217" width="120" height="30" rx="6" fill="#ec4899" stroke="#db2777" stroke-width="1"/>
  <text x="430" y="237" font-family="Segoe UI,Helvetica,Arial,sans-serif" font-size="12" fill="#fff" text-anchor="middle" font-weight="600">Designer</text>

  <rect x="378" y="256" width="104" height="28" rx="3" fill="#161b22" stroke="#30363d" stroke-width="1"/>
  <text x="430" y="269" font-family="Segoe UI,Helvetica,Arial,sans-serif" font-size="8" fill="#8b949e" text-anchor="middle">opposite provider</text>
  <text x="430" y="279" font-family="Segoe UI,Helvetica,Arial,sans-serif" font-size="8" fill="#484f58" text-anchor="middle">SOTA · high reasoning</text>
  <path d="M290,250 L290,270 L378,270" fill="none" stroke="#444" stroke-width="1" stroke-dasharray="3,2" marker-end="url(#ad)"/>

  <line x1="220" y1="250" x2="220" y2="280" stroke="#555" stroke-width="1.5" marker-end="url(#a)"/>
  <text x="228" y="270" font-family="Segoe UI,Helvetica,Arial,sans-serif" font-size="8" fill="#6e7681" text-anchor="start">spec ready</text>

  <rect x="140" y="280" width="160" height="36" rx="6" fill="#10b981" stroke="#059669" stroke-width="1"/>
  <text x="220" y="303" font-family="Segoe UI,Helvetica,Arial,sans-serif" font-size="12" fill="#fff" text-anchor="middle" font-weight="600">Coder</text>

  <line x1="220" y1="316" x2="220" y2="348" stroke="#555" stroke-width="1.5" marker-end="url(#a)"/>
  <text x="228" y="337" font-family="Segoe UI,Helvetica,Arial,sans-serif" font-size="8" fill="#6e7681" text-anchor="start">code complete</text>

  <rect x="140" y="348" width="160" height="36" rx="6" fill="#ef4444" stroke="#dc2626" stroke-width="1"/>
  <text x="220" y="371" font-family="Segoe UI,Helvetica,Arial,sans-serif" font-size="12" fill="#fff" text-anchor="middle" font-weight="600">Reviewer</text>

  <rect x="370" y="346" width="100" height="18" rx="3" fill="#161b22" stroke="#30363d" stroke-width="1"/>
  <text x="420" y="359" font-family="Segoe UI,Helvetica,Arial,sans-serif" font-size="8" fill="#8b949e" text-anchor="middle">opposite provider SOTA</text>
  <rect x="370" y="366" width="100" height="18" rx="3" fill="#161b22" stroke="#30363d" stroke-width="1"/>
  <text x="420" y="379" font-family="Segoe UI,Helvetica,Arial,sans-serif" font-size="8" fill="#8b949e" text-anchor="middle">current model</text>
  <rect x="370" y="386" width="100" height="18" rx="3" fill="#161b22" stroke="#30363d" stroke-width="1"/>
  <text x="420" y="399" font-family="Segoe UI,Helvetica,Arial,sans-serif" font-size="8" fill="#8b949e" text-anchor="middle">consolidation</text>
  <text x="420" y="416" font-family="Segoe UI,Helvetica,Arial,sans-serif" font-size="8" fill="#484f58" text-anchor="middle">all at high reasoning</text>
  <line x1="300" y1="358" x2="370" y2="355" stroke="#444" stroke-width="1" stroke-dasharray="3,2"/>
  <line x1="300" y1="366" x2="370" y2="375" stroke="#444" stroke-width="1" stroke-dasharray="3,2"/>
  <line x1="300" y1="374" x2="370" y2="395" stroke="#444" stroke-width="1" stroke-dasharray="3,2"/>

  <path d="M140,366 L100,366 L100,298 L140,298" fill="none" stroke="#ef4444" stroke-width="1.5" stroke-dasharray="5,3" marker-end="url(#ar)"/>
  <text x="92" y="292" font-family="Segoe UI,Helvetica,Arial,sans-serif" font-size="8" fill="#f87171" text-anchor="start">fix issues</text>

  <line x1="220" y1="384" x2="220" y2="416" stroke="#555" stroke-width="1.5" marker-end="url(#a)"/>
  <text x="228" y="405" font-family="Segoe UI,Helvetica,Arial,sans-serif" font-size="8" fill="#6e7681" text-anchor="start">review passed</text>

  <rect x="140" y="416" width="160" height="36" rx="6" fill="#06b6d4" stroke="#0891b2" stroke-width="1"/>
  <text x="220" y="439" font-family="Segoe UI,Helvetica,Arial,sans-serif" font-size="12" fill="#fff" text-anchor="middle" font-weight="600">QA</text>

  <path d="M140,434 L80,434 L80,298 L140,298" fill="none" stroke="#ef4444" stroke-width="1.5" stroke-dasharray="5,3" marker-end="url(#ar)"/>

  <line x1="220" y1="452" x2="220" y2="484" stroke="#555" stroke-width="1.5" marker-end="url(#a)"/>
  <text x="228" y="473" font-family="Segoe UI,Helvetica,Arial,sans-serif" font-size="8" fill="#6e7681" text-anchor="start">all passed</text>

  <rect x="145" y="484" width="150" height="36" rx="18" fill="#21262d" stroke="#30363d" stroke-width="1" stroke-dasharray="4,2"/>
  <text x="220" y="507" font-family="Segoe UI,Helvetica,Arial,sans-serif" font-size="13" fill="#c9d1d9" text-anchor="middle" font-weight="500">Commit</text>

  <path d="M145,502 L38,502 L38,93 L120,93" fill="none" stroke="#555" stroke-width="1.5" stroke-dasharray="6,3" marker-end="url(#a)"/>
  <text x="30" y="302" font-family="Segoe UI,Helvetica,Arial,sans-serif" font-size="9" fill="#6e7681" text-anchor="middle" font-style="italic" transform="rotate(-90,30,302)">goal incomplete: next feature</text>

  <line x1="220" y1="520" x2="220" y2="548" stroke="#238636" stroke-width="1.5" marker-end="url(#ag)"/>
  <text x="228" y="540" font-family="Segoe UI,Helvetica,Arial,sans-serif" font-size="8" fill="#3fb950" text-anchor="start">goal complete</text>

  <rect x="135" y="548" width="170" height="36" rx="18" fill="#21262d" stroke="#238636" stroke-width="1.5" stroke-dasharray="4,2"/>
  <text x="220" y="571" font-family="Segoe UI,Helvetica,Arial,sans-serif" font-size="13" fill="#3fb950" text-anchor="middle" font-weight="600">Goal Achieved</text>

  <text x="220" y="604" font-family="Segoe UI,Helvetica,Arial,sans-serif" font-size="9" fill="#484f58" text-anchor="middle" font-style="italic">Each agent hands back to the Orchestrator, who decides the next step.</text>

  <rect x="370" y="148" width="120" height="36" rx="6" fill="#f97316" stroke="#ea580c" stroke-width="1" stroke-dasharray="4,3"/>
  <text x="430" y="168" font-family="Segoe UI,Helvetica,Arial,sans-serif" font-size="12" fill="#fff" text-anchor="middle" font-weight="600">Marketer</text>
  <text x="430" y="179" font-family="Segoe UI,Helvetica,Arial,sans-serif" font-size="8" fill="#fed7aa" text-anchor="middle" font-style="italic">mostly on-demand</text>

  <path d="M320,93 L430,93 L430,148" fill="none" stroke="#f97316" stroke-width="1.2" stroke-dasharray="4,3" marker-end="url(#a)"/>
  <text x="390" y="87" font-family="Segoe UI,Helvetica,Arial,sans-serif" font-size="8" fill="#fdba74" text-anchor="middle">inception / MVP</text>

</svg>